<svg width="48" height="48" viewBox="0 0 48 48" fill="none" xmlns="http://www.w3.org/2000/svg">
<path fill-rule="evenodd" clip-rule="evenodd" d="M22.2655 0.0251405C19.2292 0.321183 16.7759 0.933349 14.3862 1.99131C12.6286 2.76938 10.5222 3.99174 10.023 4.5233C9.52634 5.05214 9.85267 5.91691 10.5924 6.03241C10.8744 6.07642 11.0472 5.99788 11.9474 5.4164C13.1563 4.63543 15.0316 3.69429 16.3561 3.20364C17.3023 2.85308 19.6354 2.2228 19.9867 2.2228C20.173 2.2228 20.1733 2.22768 20.0047 2.48084C18.4855 4.76173 17.4184 7.58338 16.5497 11.617L16.3957 12.3316L15.7681 12.4865C14.3956 12.8253 13.3555 13.8071 12.8985 15.1952C12.848 15.3486 12.5423 15.3594 8.24521 15.3594C5.71568 15.3594 3.64606 15.3325 3.64606 15.2994C3.64606 15.1316 4.73237 13.0463 5.20344 12.3098C5.87589 11.2587 5.92186 10.8939 5.43625 10.4599C5.16723 10.2194 5.06592 10.1847 4.75469 10.2265C4.27237 10.2912 4.19996 10.3612 3.58472 11.3561C-1.36552 19.3615 -1.17501 29.5702 4.07051 37.3921L4.46954 37.9871L4.19367 38.522C3.81294 39.2605 3.67177 40.1438 3.80759 40.937C4.26083 43.5838 7.10862 45.0272 9.47184 43.808L10.0027 43.5341L10.8344 44.0733C14.6474 46.5452 18.6607 47.8148 23.1954 47.9835C31.565 48.2949 39.4592 44.1824 44.1349 37.075C46.7891 33.0405 48.1657 28.0731 47.9841 23.1864C47.8154 18.6501 46.5463 14.6354 44.0752 10.8211L43.5362 9.98906L43.81 9.45806C44.1888 8.72335 44.3297 7.83898 44.194 7.04703C43.7404 4.39803 40.893 2.95685 38.5259 4.17809L37.9911 4.45405L37.3963 4.05489C34.4113 2.05165 31.0566 0.763418 27.3776 0.207364C26.4433 0.0661455 23.0758 -0.0538667 22.2655 0.0251405ZM24.8219 2.07877C26.8799 3.03727 28.9375 7.69138 29.9052 13.5766C30.0113 14.2217 30.1211 14.8871 30.1493 15.0553L30.2005 15.3611L25.356 15.3368L20.5113 15.3125L20.34 14.8609C20.0208 14.0195 19.4284 13.3854 18.2884 12.6653C18.2333 12.6305 18.5288 11.2675 18.9046 9.82326C20.1413 5.07025 22.1998 1.84935 24.0008 1.84935C24.1814 1.84935 24.5509 1.95256 24.8219 2.07877ZM29.4562 2.53949C30.1444 2.71364 31.1297 3.0125 31.6456 3.20364C33.785 3.99615 36.8435 5.71357 36.7129 6.04893C36.4855 6.63238 36.3642 7.39374 36.4105 7.9467C36.639 10.6782 39.3231 12.2953 41.9366 11.2761C42.0625 11.2269 42.2144 11.3929 42.6386 12.0432C43.151 12.8284 44.3556 15.0965 44.3556 15.2759C44.3556 15.3238 41.7446 15.3594 38.2296 15.3594H32.1037L31.8471 13.7877C31.1001 9.21025 29.8608 5.39013 28.3692 3.0673C28.1538 2.73184 27.9456 2.40465 27.9066 2.34009C27.795 2.15571 28.0894 2.19362 29.4562 2.53949ZM41.2714 5.86295C42.8012 6.66241 42.7121 8.82619 41.1194 9.55387C39.7545 10.1776 38.134 8.99406 38.2795 7.47969C38.3784 6.44997 39.3016 5.60078 40.3221 5.60078C40.6299 5.60078 40.9265 5.6827 41.2714 5.86295ZM6.87281 7.23347C6.5219 7.5845 6.46975 7.88693 6.68755 8.30833C7.01041 8.93279 7.97337 8.93279 8.29623 8.30833C8.54518 7.82669 8.3935 7.27898 7.94729 7.04816C7.52604 6.83028 7.22372 6.88245 6.87281 7.23347ZM17.5934 14.4711C18.5744 14.9601 19.0119 16.1328 18.5725 17.0953C17.8415 18.6962 15.6851 18.7775 14.8746 17.2347C14.6468 16.801 14.6101 16.6361 14.6414 16.1877C14.746 14.6909 16.2638 13.8083 17.5934 14.4711ZM12.8985 17.4003C13.2377 18.4306 14.0275 19.3706 14.9204 19.807L15.4546 20.068L15.401 22.6634C15.353 24.9845 15.4198 27.2015 15.6201 29.927L15.6804 30.748H9.2953H2.9102L2.81152 30.443C2.60638 29.8091 2.24299 28.1683 2.08334 27.1552C1.95943 26.3682 1.91835 25.5596 1.92022 23.9451C1.92332 21.3813 2.10567 20.0441 2.76809 17.7287L2.90898 17.2361H7.87666C12.5248 17.2361 12.8479 17.2467 12.8985 17.4003ZM30.4232 17.3533C30.6173 17.9522 30.8127 23.9883 30.7114 26.2568L30.6416 27.8177L30.332 27.868C29.7638 27.9602 28.9831 28.4208 28.4538 28.9759C27.9863 29.466 27.4747 30.3287 27.4724 30.6307C27.471 30.8024 17.6341 30.8024 17.5785 30.6307C17.3845 30.0326 17.1888 23.9964 17.29 21.732L17.3595 20.1756L17.8174 20.0582C18.3956 19.91 19.2769 19.3443 19.6712 18.8685C19.9437 18.5394 20.327 17.8353 20.4702 17.4003C20.5208 17.2467 20.8422 17.2361 25.4547 17.2361C29.3162 17.2361 30.3934 17.2615 30.4232 17.3533ZM45.1901 17.541C45.3965 18.1787 45.7589 19.8178 45.9171 20.8288C46.1498 22.3159 46.1504 25.6044 45.9184 27.0885C45.7457 28.1925 45.4899 29.3792 45.2356 30.2554L45.0926 30.748H40.1019H35.111L34.8424 30.1311C34.5018 29.3489 33.831 28.6121 33.1094 28.2274L32.5467 27.9274L32.6006 25.3263C32.6487 22.9994 32.582 20.7849 32.3815 18.0571L32.3212 17.2361H38.7063H45.0914L45.1901 17.541ZM32.1675 29.88C32.5008 30.049 32.7735 30.2785 32.9582 30.5449C33.213 30.9126 33.2402 31.0226 33.2402 31.6863C33.2402 32.35 33.213 32.4601 32.9582 32.8277C32.6285 33.3034 31.8356 33.7509 31.3239 33.7501C30.1381 33.7483 29.217 32.846 29.217 31.6863C29.217 30.1325 30.7795 29.1759 32.1675 29.88ZM16.1545 34.1963C16.9163 38.8646 18.1608 42.6546 19.721 45.0575C20.0739 45.6011 20.1196 45.719 19.9862 45.7414C19.733 45.7838 17.3915 45.164 16.3561 44.7804C14.2167 43.9879 11.1581 42.2705 11.2888 41.9351C11.5161 41.3517 11.6374 40.5903 11.5912 40.0373C11.3627 37.3059 8.67856 35.6888 6.065 36.708C5.93912 36.7571 5.78725 36.5912 5.36299 35.9409C4.85065 35.1556 3.64606 32.8876 3.64606 32.7082C3.64606 32.6602 6.25701 32.6246 9.772 32.6246H15.8979L16.1545 34.1963ZM27.4724 32.7419C27.4728 32.8065 27.5769 33.0818 27.7035 33.3539C27.9879 33.9651 28.7444 34.7794 29.3031 35.0759C29.5338 35.1984 29.7227 35.3469 29.7227 35.4059C29.7227 35.6225 29.1527 38.0165 28.8696 38.9891C27.8148 42.6132 26.2887 45.2221 24.825 45.9038C24.2 46.1949 23.8023 46.1952 23.1798 45.9053C21.1193 44.9457 19.1393 40.4698 18.0934 34.4075C17.9376 33.5043 17.8102 32.7338 17.8101 32.695C17.81 32.6563 19.9838 32.6246 22.6407 32.6246C26.4423 32.6246 27.4716 32.6496 27.4724 32.7419ZM44.3556 32.6859C44.3556 32.8114 43.2454 34.951 42.8527 35.5824C41.1065 38.39 38.3939 41.1036 35.5872 42.8504C34.6038 43.4624 32.8894 44.3012 31.7351 44.7352C30.7118 45.1199 28.3893 45.7612 28.0194 45.7612C27.8283 45.7612 27.8279 45.757 27.9969 45.5032C29.5021 43.2433 30.6153 40.3016 31.4532 36.369L31.605 35.6563L32.1881 35.4942C33.4434 35.145 34.3476 34.3776 34.8424 33.2415L35.111 32.6246H39.7333C42.2755 32.6246 44.3556 32.6522 44.3556 32.6859ZM8.62876 38.5168C10.1988 39.3373 10.0422 41.6136 8.37193 42.2517C7.03349 42.7631 5.53615 41.6449 5.63651 40.2089C5.71249 39.1219 6.61917 38.2546 7.67949 38.2546C7.98725 38.2546 8.28385 38.3365 8.62876 38.5168Z" fill="#8E2424"/>
</svg>
